ffmpeg started on 2026-03-22 at 16:55:13
Report written to "D:\Convert\FFMetrics\reports\psnr_report-6.txt"
Log level: 32
Command line:
ffmpeg -hide_banner -nostdin -r 24000/1001 -i "F:\\Convert\\files\\[DC] Make Heroine ga Oosugiru - 07_Telegram_HEVC(227).mkv" -r 24000/1001 -i "F:\\Convert\\files\\[DC] Make Heroine ga Oosugiru - 07_Telegram.mp4" -lavfi "[0:v]settb=AVTB,setpts=PTS-STARTPTS,format=pix_fmts=yuv420p10le,fps=24000/1001,scale=1920:1080:flags=lanczos:param0=3:out_range=limited:out_color_matrix=bt709:out_chroma_loc=left,setsar=1/1,setdar=(1920/1080)*(1/1),colorspace=format=yuv420p10:range=tv:primaries=bt709:trc=bt709:space=bt709:fast=0[main];[1:v]settb=AVTB,setpts=PTS-STARTPTS,format=pix_fmts=yuv420p,fps=24000/1001,scale=1920:1080:flags=lanczos:param0=3:out_range=limited:out_color_matrix=bt709:out_chroma_loc=left,setsar=1.000,setdar=1.778,colorspace=format=yuv420p:range=tv:primaries=bt709:trc=bt709:space=bt709:fast=0[ref];[main][ref]psnr=eof_action=endall:stats_file='D\\:/Convert/FFMetrics/logs/psnr_logfile-6.txt'" -f null -
Input #0, matroska,webm, from 'F:\Convert\files\[DC] Make Heroine ga Oosugiru - 07_Telegram_HEVC(227).mkv':
  Metadata:
    COMPATIBLE_BRANDS: isomiso2avc1mp41
    MAJOR_BRAND     : isom
    MINOR_VERSION   : 512
    ENCODER         : Lavf61.7.100
  Duration: 00:24:06.79, start: -0.021000, bitrate: 983 kb/s
  Stream #0:0: Video: hevc (Main 10), yuv420p10le(tv, bt709, progressive), 1920x1080 [SAR 1:1 DAR 16:9], 23.98 fps, 23.98 tbr, 1k tbn (default)
      Metadata:
        HANDLER_NAME    : VideoHandler
        VENDOR_ID       : [0][0][0][0]
        ENCODER         : Lavc61.19.100 libx265
        BPS             : 786727
        DURATION        : 00:24:06.569708333
        NUMBER_OF_FRAMES: 34683
        NUMBER_OF_BYTES : 142257028
        _STATISTICS_WRITING_APP: mkvpropedit v94.0 ('Initiate') 64-bit
        _STATISTICS_WRITING_DATE_UTC: 2026-03-21 12:34:01
        _STATISTICS_TAGS: BPS DURATION NUMBER_OF_FRAMES NUMBER_OF_BYTES
  Stream #0:1: Audio: aac (LC), 48000 Hz, stereo, fltp (default)
      Metadata:
        HANDLER_NAME    : SoundHandler
        VENDOR_ID       : [0][0][0][0]
        ENCODER         : Lavc61.19.100 aac
        BPS             : 193194
        DURATION        : 00:24:06.784000000
        NUMBER_OF_FRAMES: 67819
        NUMBER_OF_BYTES : 34938755
        _STATISTICS_WRITING_APP: mkvpropedit v94.0 ('Initiate') 64-bit
        _STATISTICS_WRITING_DATE_UTC: 2026-03-21 12:34:01
        _STATISTICS_TAGS: BPS DURATION NUMBER_OF_FRAMES NUMBER_OF_BYTES
Input #1, mov,mp4,m4a,3gp,3g2,mj2, from 'F:\Convert\files\[DC] Make Heroine ga Oosugiru - 07_Telegram.mp4':
  Metadata:
    major_brand     : isom
    minor_version   : 512
    compatible_brands: isomiso2avc1mp41
    encoder         : Lavf60.16.100
  Duration: 00:24:06.74, start: 0.000000, bitrate: 3764 kb/s
  Stream #1:0[0x1](und): Video: h264 (High) (avc1 / 0x31637661), yuv420p(tv, bt709, progressive), 1920x1080 [SAR 1:1 DAR 16:9], 3616 kb/s, 23.98 fps, 23.98 tbr, 24k tbn (default)
      Metadata:
        handler_name    : VideoHandler
        vendor_id       : [0][0][0][0]
        encoder         : Lavc60.31.102 h264_qsv
  Stream #1:1[0x2](und): Audio: aac (HE-AACv2) (mp4a / 0x6134706D), 48000 Hz, stereo, fltp, 144 kb/s (default)
      Metadata:
        handler_name    : SoundHandler
        vendor_id       : [0][0][0][0]
Stream mapping:
  Stream #0:0 (hevc) -> settb:default
  Stream #1:0 (h264) -> settb:default
  psnr:default -> Stream #0:0 (wrapped_avframe)
  Stream #0:1 -> #0:1 (aac (native) -> pcm_s16le (native))
Output #0, null, to 'pipe:':
  Metadata:
    COMPATIBLE_BRANDS: isomiso2avc1mp41
    MAJOR_BRAND     : isom
    MINOR_VERSION   : 512
    encoder         : Lavf61.7.100
  Stream #0:0: Video: wrapped_avframe, yuv420p10le(tv, bt709, progressive), 1920x1080 [SAR 1:1 DAR 16:9], q=2-31, 200 kb/s, 23.98 fps, 23.98 tbn
      Metadata:
        encoder         : Lavc61.19.100 wrapped_avframe
  Stream #0:1: Audio: pcm_s16le, 48000 Hz, stereo, s16, 1536 kb/s (default)
      Metadata:
        HANDLER_NAME    : SoundHandler
        VENDOR_ID       : [0][0][0][0]
        _STATISTICS_TAGS: BPS DURATION NUMBER_OF_FRAMES NUMBER_OF_BYTES
        BPS             : 193194
        DURATION        : 00:24:06.784000000
        NUMBER_OF_FRAMES: 67819
        NUMBER_OF_BYTES : 34938755
        _STATISTICS_WRITING_APP: mkvpropedit v94.0 ('Initiate') 64-bit
        _STATISTICS_WRITING_DATE_UTC: 2026-03-21 12:34:01
        encoder         : Lavc61.19.100 pcm_s16le
frame=  139 fps=0.0 q=-0.0 size=N/A time=00:00:05.79 bitrate=N/A speed=11.2x    frame=  347 fps=332 q=-0.0 size=N/A time=00:00:14.47 bitrate=N/A speed=13.8x    frame=  551 fps=354 q=-0.0 size=N/A time=00:00:22.98 bitrate=N/A speed=14.8x    frame=  749 fps=362 q=-0.0 size=N/A time=00:00:31.23 bitrate=N/A speed=15.1x    frame=  930 fps=358 q=-0.0 size=N/A time=00:00:38.78 bitrate=N/A speed=14.9x    frame= 1086 fps=349 q=-0.0 size=N/A time=00:00:45.29 bitrate=N/A speed=14.6x    frame= 1250 fps=345 q=-0.0 size=N/A time=00:00:52.13 bitrate=N/A speed=14.4x    frame= 1414 fps=342 q=-0.0 size=N/A time=00:00:58.97 bitrate=N/A speed=14.3x    frame= 1558 fps=336 q=-0.0 size=N/A time=00:01:04.98 bitrate=N/A speed=  14x    frame= 1720 fps=333 q=-0.0 size=N/A time=00:01:11.73 bitrate=N/A speed=13.9x    frame= 1890 fps=333 q=-0.0 size=N/A time=00:01:18.82 bitrate=N/A speed=13.9x    frame= 2049 fps=331 q=-0.0 size=N/A time=00:01:25.46 bitrate=N/A speed=13.8x    frame= 2166 fps=323 q=-0.0 size=N/A time=00:01:30.34 bitrate=N/A speed=13.5x    frame= 2328 fps=322 q=-0.0 size=N/A time=00:01:37.09 bitrate=N/A speed=13.4x    frame= 2467 fps=319 q=-0.0 size=N/A time=00:01:42.89 bitrate=N/A speed=13.3x    frame= 2605 fps=316 q=-0.0 size=N/A time=00:01:48.65 bitrate=N/A speed=13.2x    frame= 2795 fps=318 q=-0.0 size=N/A time=00:01:56.57 bitrate=N/A speed=13.3x    frame= 2972 fps=320 q=-0.0 size=N/A time=00:02:03.95 bitrate=N/A speed=13.3x    frame= 3174 fps=324 q=-0.0 size=N/A time=00:02:12.38 bitrate=N/A speed=13.5x    frame= 3385 fps=328 q=-0.0 size=N/A time=00:02:21.18 bitrate=N/A speed=13.7x    frame= 3596 fps=332 q=-0.0 size=N/A time=00:02:29.98 bitrate=N/A speed=13.8x    frame= 3806 fps=335 q=-0.0 size=N/A time=00:02:38.74 bitrate=N/A speed=  14x    frame= 4009 fps=338 q=-0.0 size=N/A time=00:02:47.20 bitrate=N/A speed=14.1x    frame= 4211 fps=340 q=-0.0 size=N/A time=00:02:55.63 bitrate=N/A speed=14.2x    frame= 4419 fps=343 q=-0.0 size=N/A time=00:03:04.30 bitrate=N/A speed=14.3x    frame= 4621 fps=345 q=-0.0 size=N/A time=00:03:12.73 bitrate=N/A speed=14.4x    frame= 4834 fps=347 q=-0.0 size=N/A time=00:03:21.61 bitrate=N/A speed=14.5x    frame= 5037 fps=349 q=-0.0 size=N/A time=00:03:30.08 bitrate=N/A speed=14.5x    frame= 5233 fps=350 q=-0.0 size=N/A time=00:03:38.25 bitrate=N/A speed=14.6x    frame= 5447 fps=352 q=-0.0 size=N/A time=00:03:47.18 bitrate=N/A speed=14.7x    frame= 5650 fps=353 q=-0.0 size=N/A time=00:03:55.65 bitrate=N/A speed=14.7x    frame= 5853 fps=355 q=-0.0 size=N/A time=00:04:04.11 bitrate=N/A speed=14.8x    frame= 6052 fps=356 q=-0.0 size=N/A time=00:04:12.41 bitrate=N/A speed=14.8x    frame= 6261 fps=357 q=-0.0 size=N/A time=00:04:21.13 bitrate=N/A speed=14.9x    frame= 6463 fps=358 q=-0.0 size=N/A time=00:04:29.56 bitrate=N/A speed=14.9x    frame= 6671 fps=359 q=-0.0 size=N/A time=00:04:38.23 bitrate=N/A speed=  15x    frame= 6881 fps=360 q=-0.0 size=N/A time=00:04:46.99 bitrate=N/A speed=  15x    frame= 7077 fps=361 q=-0.0 size=N/A time=00:04:55.16 bitrate=N/A speed=15.1x    frame= 7272 fps=361 q=-0.0 size=N/A time=00:05:03.30 bitrate=N/A speed=15.1x    frame= 7468 fps=362 q=-0.0 size=N/A time=00:05:11.47 bitrate=N/A speed=15.1x    frame= 7651 fps=362 q=-0.0 size=N/A time=00:05:19.11 bitrate=N/A speed=15.1x    frame= 7861 fps=363 q=-0.0 size=N/A time=00:05:27.86 bitrate=N/A speed=15.1x    frame= 8060 fps=363 q=-0.0 size=N/A time=00:05:36.16 bitrate=N/A speed=15.2x    frame= 8260 fps=364 q=-0.0 size=N/A time=00:05:44.51 bitrate=N/A speed=15.2x    frame= 8460 fps=365 q=-0.0 size=N/A time=00:05:52.85 bitrate=N/A speed=15.2x    frame= 8667 fps=365 q=-0.0 size=N/A time=00:06:01.48 bitrate=N/A speed=15.2x    frame= 8871 fps=366 q=-0.0 size=N/A time=00:06:09.99 bitrate=N/A speed=15.3x    frame= 9076 fps=367 q=-0.0 size=N/A time=00:06:18.54 bitrate=N/A speed=15.3x    frame= 9273 fps=367 q=-0.0 size=N/A time=00:06:26.76 bitrate=N/A speed=15.3x    frame= 9482 fps=368 q=-0.0 size=N/A time=00:06:35.47 bitrate=N/A speed=15.3x    frame= 9680 fps=368 q=-0.0 size=N/A time=00:06:43.73 bitrate=N/A speed=15.3x    frame= 9879 fps=368 q=-0.0 size=N/A time=00:06:52.03 bitrate=N/A speed=15.4x    frame=10083 fps=369 q=-0.0 size=N/A time=00:07:00.54 bitrate=N/A speed=15.4x    frame=10285 fps=369 q=-0.0 size=N/A time=00:07:08.97 bitrate=N/A speed=15.4x    frame=10486 fps=370 q=-0.0 size=N/A time=00:07:17.35 bitrate=N/A speed=15.4x    frame=10681 fps=370 q=-0.0 size=N/A time=00:07:25.48 bitrate=N/A speed=15.4x    frame=10887 fps=370 q=-0.0 size=N/A time=00:07:34.07 bitrate=N/A speed=15.4x    frame=11095 fps=371 q=-0.0 size=N/A time=00:07:42.75 bitrate=N/A speed=15.5x    frame=11279 fps=370 q=-0.0 size=N/A time=00:07:50.42 bitrate=N/A speed=15.5x    frame=11484 fps=371 q=-0.0 size=N/A time=00:07:58.97 bitrate=N/A speed=15.5x    frame=11693 fps=371 q=-0.0 size=N/A time=00:08:07.69 bitrate=N/A speed=15.5x    frame=11896 fps=372 q=-0.0 size=N/A time=00:08:16.16 bitrate=N/A speed=15.5x    frame=12102 fps=372 q=-0.0 size=N/A time=00:08:24.75 bitrate=N/A speed=15.5x    frame=12305 fps=373 q=-0.0 size=N/A time=00:08:33.22 bitrate=N/A speed=15.5x    frame=12513 fps=373 q=-0.0 size=N/A time=00:08:41.89 bitrate=N/A speed=15.6x    frame=12717 fps=373 q=-0.0 size=N/A time=00:08:50.40 bitrate=N/A speed=15.6x    frame=12920 fps=374 q=-0.0 size=N/A time=00:08:58.87 bitrate=N/A speed=15.6x    frame=13120 fps=374 q=-0.0 size=N/A time=00:09:07.21 bitrate=N/A speed=15.6x    frame=13324 fps=374 q=-0.0 size=N/A time=00:09:15.72 bitrate=N/A speed=15.6x    frame=13520 fps=374 q=-0.0 size=N/A time=00:09:23.89 bitrate=N/A speed=15.6x    frame=13722 fps=375 q=-0.0 size=N/A time=00:09:32.32 bitrate=N/A speed=15.6x    frame=13919 fps=375 q=-0.0 size=N/A time=00:09:40.53 bitrate=N/A speed=15.6x    frame=14110 fps=375 q=-0.0 size=N/A time=00:09:48.50 bitrate=N/A speed=15.6x    frame=14304 fps=375 q=-0.0 size=N/A time=00:09:56.59 bitrate=N/A speed=15.6x    frame=14504 fps=375 q=-0.0 size=N/A time=00:10:04.93 bitrate=N/A speed=15.6x    frame=14707 fps=375 q=-0.0 size=N/A time=00:10:13.40 bitrate=N/A speed=15.6x    frame=14900 fps=375 q=-0.0 size=N/A time=00:10:21.45 bitrate=N/A speed=15.6x    frame=15090 fps=375 q=-0.0 size=N/A time=00:10:29.37 bitrate=N/A speed=15.6x    frame=15266 fps=375 q=-0.0 size=N/A time=00:10:36.71 bitrate=N/A speed=15.6x    frame=15471 fps=375 q=-0.0 size=N/A time=00:10:45.26 bitrate=N/A speed=15.6x    frame=15678 fps=375 q=-0.0 size=N/A time=00:10:53.90 bitrate=N/A speed=15.6x    frame=15875 fps=375 q=-0.0 size=N/A time=00:11:02.11 bitrate=N/A speed=15.7x    frame=16078 fps=375 q=-0.0 size=N/A time=00:11:10.58 bitrate=N/A speed=15.7x    frame=16284 fps=376 q=-0.0 size=N/A time=00:11:19.17 bitrate=N/A speed=15.7x    frame=16478 fps=376 q=-0.0 size=N/A time=00:11:27.26 bitrate=N/A speed=15.7x    frame=16685 fps=376 q=-0.0 size=N/A time=00:11:35.90 bitrate=N/A speed=15.7x    frame=16890 fps=376 q=-0.0 size=N/A time=00:11:44.45 bitrate=N/A speed=15.7x    frame=17092 fps=377 q=-0.0 size=N/A time=00:11:52.87 bitrate=N/A speed=15.7x    frame=17304 fps=377 q=-0.0 size=N/A time=00:12:01.72 bitrate=N/A speed=15.7x    frame=17502 fps=377 q=-0.0 size=N/A time=00:12:09.97 bitrate=N/A speed=15.7x    frame=17689 fps=377 q=-0.0 size=N/A time=00:12:17.77 bitrate=N/A speed=15.7x    frame=17890 fps=377 q=-0.0 size=N/A time=00:12:26.16 bitrate=N/A speed=15.7x    frame=18101 fps=377 q=-0.0 size=N/A time=00:12:34.96 bitrate=N/A speed=15.7x    frame=18294 fps=377 q=-0.0 size=N/A time=00:12:43.01 bitrate=N/A speed=15.7x    frame=18487 fps=377 q=-0.0 size=N/A time=00:12:51.06 bitrate=N/A speed=15.7x    frame=18696 fps=377 q=-0.0 size=N/A time=00:12:59.77 bitrate=N/A speed=15.7x    frame=18908 fps=378 q=-0.0 size=N/A time=00:13:08.62 bitrate=N/A speed=15.8x    frame=19100 fps=378 q=-0.0 size=N/A time=00:13:16.62 bitrate=N/A speed=15.8x    frame=19310 fps=378 q=-0.0 size=N/A time=00:13:25.38 bitrate=N/A speed=15.8x    frame=19515 fps=378 q=-0.0 size=N/A time=00:13:33.93 bitrate=N/A speed=15.8x    frame=19726 fps=379 q=-0.0 size=N/A time=00:13:42.73 bitrate=N/A speed=15.8x    frame=19935 fps=379 q=-0.0 size=N/A time=00:13:51.45 bitrate=N/A speed=15.8x    frame=20137 fps=379 q=-0.0 size=N/A time=00:13:59.88 bitrate=N/A speed=15.8x    frame=20340 fps=379 q=-0.0 size=N/A time=00:14:08.34 bitrate=N/A speed=15.8x    frame=20532 fps=379 q=-0.0 size=N/A time=00:14:16.35 bitrate=N/A speed=15.8x    frame=20719 fps=379 q=-0.0 size=N/A time=00:14:24.15 bitrate=N/A speed=15.8x    frame=20930 fps=379 q=-0.0 size=N/A time=00:14:32.95 bitrate=N/A speed=15.8x    frame=21132 fps=379 q=-0.0 size=N/A time=00:14:41.38 bitrate=N/A speed=15.8x    frame=21341 fps=380 q=-0.0 size=N/A time=00:14:50.09 bitrate=N/A speed=15.8x    frame=21546 fps=380 q=-0.0 size=N/A time=00:14:58.64 bitrate=N/A speed=15.8x    frame=21750 fps=380 q=-0.0 size=N/A time=00:15:07.15 bitrate=N/A speed=15.8x    frame=21961 fps=380 q=-0.0 size=N/A time=00:15:15.95 bitrate=N/A speed=15.9x    frame=22170 fps=380 q=-0.0 size=N/A time=00:15:24.67 bitrate=N/A speed=15.9x    frame=22366 fps=380 q=-0.0 size=N/A time=00:15:32.84 bitrate=N/A speed=15.9x    frame=22578 fps=381 q=-0.0 size=N/A time=00:15:41.69 bitrate=N/A speed=15.9x    frame=22780 fps=381 q=-0.0 size=N/A time=00:15:50.11 bitrate=N/A speed=15.9x    frame=22980 fps=381 q=-0.0 size=N/A time=00:15:58.45 bitrate=N/A speed=15.9x    frame=23183 fps=381 q=-0.0 size=N/A time=00:16:06.92 bitrate=N/A speed=15.9x    frame=23395 fps=381 q=-0.0 size=N/A time=00:16:15.76 bitrate=N/A speed=15.9x    frame=23604 fps=381 q=-0.0 size=N/A time=00:16:24.48 bitrate=N/A speed=15.9x    frame=23815 fps=381 q=-0.0 size=N/A time=00:16:33.28 bitrate=N/A speed=15.9x    frame=24015 fps=382 q=-0.0 size=N/A time=00:16:41.62 bitrate=N/A speed=15.9x    frame=24216 fps=382 q=-0.0 size=N/A time=00:16:50.00 bitrate=N/A speed=15.9x    frame=24423 fps=382 q=-0.0 size=N/A time=00:16:58.64 bitrate=N/A speed=15.9x    frame=24630 fps=382 q=-0.0 size=N/A time=00:17:07.27 bitrate=N/A speed=15.9x    frame=24836 fps=382 q=-0.0 size=N/A time=00:17:15.86 bitrate=N/A speed=15.9x    frame=25043 fps=382 q=-0.0 size=N/A time=00:17:24.50 bitrate=N/A speed=15.9x    frame=25244 fps=382 q=-0.0 size=N/A time=00:17:32.88 bitrate=N/A speed=15.9x    frame=25446 fps=382 q=-0.0 size=N/A time=00:17:41.31 bitrate=N/A speed=15.9x    frame=25647 fps=382 q=-0.0 size=N/A time=00:17:49.69 bitrate=N/A speed=15.9x    frame=25852 fps=383 q=-0.0 size=N/A time=00:17:58.24 bitrate=N/A speed=  16x    frame=26056 fps=383 q=-0.0 size=N/A time=00:18:06.75 bitrate=N/A speed=  16x    frame=26268 fps=383 q=-0.0 size=N/A time=00:18:15.59 bitrate=N/A speed=  16x    frame=26469 fps=383 q=-0.0 size=N/A time=00:18:23.97 bitrate=N/A speed=  16x    frame=26672 fps=383 q=-0.0 size=N/A time=00:18:32.44 bitrate=N/A speed=  16x    frame=26876 fps=383 q=-0.0 size=N/A time=00:18:40.95 bitrate=N/A speed=  16x    frame=27064 fps=383 q=-0.0 size=N/A time=00:18:48.79 bitrate=N/A speed=  16x    frame=27253 fps=383 q=-0.0 size=N/A time=00:18:56.67 bitrate=N/A speed=  16x    frame=27443 fps=383 q=-0.0 size=N/A time=00:19:04.60 bitrate=N/A speed=  16x    frame=27637 fps=383 q=-0.0 size=N/A time=00:19:12.69 bitrate=N/A speed=  16x    frame=27841 fps=383 q=-0.0 size=N/A time=00:19:21.20 bitrate=N/A speed=  16x    frame=28040 fps=383 q=-0.0 size=N/A time=00:19:29.50 bitrate=N/A speed=  16x    frame=28237 fps=383 q=-0.0 size=N/A time=00:19:37.71 bitrate=N/A speed=  16x    frame=28437 fps=383 q=-0.0 size=N/A time=00:19:46.05 bitrate=N/A speed=  16x    frame=28645 fps=383 q=-0.0 size=N/A time=00:19:54.73 bitrate=N/A speed=  16x    frame=28822 fps=383 q=-0.0 size=N/A time=00:20:02.11 bitrate=N/A speed=  16x    frame=28995 fps=382 q=-0.0 size=N/A time=00:20:09.33 bitrate=N/A speed=15.9x    frame=29178 fps=382 q=-0.0 size=N/A time=00:20:16.96 bitrate=N/A speed=15.9x    frame=29370 fps=382 q=-0.0 size=N/A time=00:20:24.97 bitrate=N/A speed=15.9x    frame=29538 fps=382 q=-0.0 size=N/A time=00:20:31.98 bitrate=N/A speed=15.9x    frame=29711 fps=381 q=-0.0 size=N/A time=00:20:39.19 bitrate=N/A speed=15.9x    frame=29895 fps=381 q=-0.0 size=N/A time=00:20:46.87 bitrate=N/A speed=15.9x    frame=30056 fps=381 q=-0.0 size=N/A time=00:20:53.58 bitrate=N/A speed=15.9x    frame=30245 fps=381 q=-0.0 size=N/A time=00:21:01.46 bitrate=N/A speed=15.9x    frame=30446 fps=381 q=-0.0 size=N/A time=00:21:09.85 bitrate=N/A speed=15.9x    frame=30650 fps=381 q=-0.0 size=N/A time=00:21:18.36 bitrate=N/A speed=15.9x    frame=30848 fps=381 q=-0.0 size=N/A time=00:21:26.61 bitrate=N/A speed=15.9x    frame=31051 fps=381 q=-0.0 size=N/A time=00:21:35.08 bitrate=N/A speed=15.9x    frame=31254 fps=381 q=-0.0 size=N/A time=00:21:43.55 bitrate=N/A speed=15.9x    frame=31443 fps=381 q=-0.0 size=N/A time=00:21:51.43 bitrate=N/A speed=15.9x    frame=31636 fps=381 q=-0.0 size=N/A time=00:21:59.48 bitrate=N/A speed=15.9x    frame=31837 fps=381 q=-0.0 size=N/A time=00:22:07.86 bitrate=N/A speed=15.9x    frame=32023 fps=381 q=-0.0 size=N/A time=00:22:15.62 bitrate=N/A speed=15.9x    frame=32221 fps=381 q=-0.0 size=N/A time=00:22:23.88 bitrate=N/A speed=15.9x    frame=32425 fps=381 q=-0.0 size=N/A time=00:22:32.39 bitrate=N/A speed=15.9x    frame=32620 fps=381 q=-0.0 size=N/A time=00:22:40.52 bitrate=N/A speed=15.9x    frame=32766 fps=380 q=-0.0 size=N/A time=00:22:46.61 bitrate=N/A speed=15.9x    frame=32945 fps=380 q=-0.0 size=N/A time=00:22:54.08 bitrate=N/A speed=15.9x    frame=33129 fps=380 q=-0.0 size=N/A time=00:23:01.75 bitrate=N/A speed=15.8x    frame=33317 fps=380 q=-0.0 size=N/A time=00:23:09.59 bitrate=N/A speed=15.8x    frame=33491 fps=380 q=-0.0 size=N/A time=00:23:16.85 bitrate=N/A speed=15.8x    frame=33646 fps=379 q=-0.0 size=N/A time=00:23:23.31 bitrate=N/A speed=15.8x    frame=33781 fps=379 q=-0.0 size=N/A time=00:23:28.94 bitrate=N/A speed=15.8x    frame=33913 fps=378 q=-0.0 size=N/A time=00:23:34.45 bitrate=N/A speed=15.8x    frame=34089 fps=378 q=-0.0 size=N/A time=00:23:41.79 bitrate=N/A speed=15.7x    frame=34250 fps=377 q=-0.0 size=N/A time=00:23:48.51 bitrate=N/A speed=15.7x    frame=34381 fps=377 q=-0.0 size=N/A time=00:23:53.97 bitrate=N/A speed=15.7x    frame=34535 fps=376 q=-0.0 size=N/A time=00:24:00.39 bitrate=N/A speed=15.7x    [Parsed_psnr_16 @ 0000017936b13c40] PSNR y:48.974940 u:50.338869 v:50.390470 average:49.390633 min:38.016919 max:inf
[out#0/null @ 000001792957e740] video:14903KiB audio:271276KiB subtitle:0KiB other streams:0KiB global headers:0KiB muxing overhead: unknown
frame=34683 fps=376 q=-0.0 Lsize=N/A time=00:24:06.57 bitrate=N/A speed=15.7x    
